ply
format ascii 1.0
Created by Blender3D 247 - www.blender.org, source file: mrfixit.blend
element vertex 385
property float x
property float y
property float z
property float nx
property float ny
property float nz
property float s
property float t
element face 602
property list uchar uint vertex_indices
end_header
0.539795 -0.290015 -0.599927 0.102817 0.583056 0.805872 0.567281 0.432656 
0.452566 -0.212158 -0.771907 -0.726402 0.435469 0.531663 0.582994 0.454958 
0.369294 -0.138639 -0.742427 -0.418592 0.620991 0.662648 0.558370 0.484781 
0.411769 -0.340226 -0.442112 0.371441 0.677938 0.634327 0.516425 0.427471 
0.374608 -0.235502 -0.367357 0.011628 0.997742 0.065950 0.485382 0.451343 
0.261109 0.026540 -0.715546 -0.765709 0.631581 0.121372 0.557206 0.530838 
0.390626 -0.597892 0.007048 0.719443 0.666494 0.195318 0.443191 0.269866 
0.000002 -0.721037 0.243949 0.976653 0.000000 0.214820 0.340517 0.100233 
0.000002 -0.804767 0.272202 0.884854 0.000000 0.465804 0.374561 0.069993 
0.496816 -0.645724 -0.130749 0.637715 0.288003 0.714377 0.499804 0.288412 
0.326215 -0.473367 0.018760 -0.073489 0.868435 -0.490310 0.390935 0.302597 
0.000003 -0.571140 0.228432 0.544908 0.000000 -0.838466 0.271883 0.159134 
0.000002 -0.203620 -0.813737 -0.945036 0.000000 0.326945 0.628658 0.495500 
0.000002 -0.115555 -0.790802 -0.968749 0.000000 0.247993 0.616989 0.510234 
0.000001 -0.008566 -0.764222 -0.989624 0.000000 0.143468 0.633592 0.514934 
0.413179 -0.507199 -0.153833 0.397198 0.724479 0.563311 0.469012 0.333575 
0.558117 -0.522061 -0.286844 0.480575 0.304453 0.822382 0.533044 0.347004 
0.310023 -0.442019 -0.106899 -0.084658 0.994812 -0.056001 0.430270 0.352064 
0.000002 0.206114 -0.725324 -0.914884 0.000000 -0.403699 0.632513 0.572984 
0.200874 0.206112 -0.725323 -0.845790 0.267739 -0.461379 0.569069 0.574257 
0.823550 -0.460580 -0.231837 0.324046 -0.301187 0.896786 0.602697 0.329936 
0.661135 -0.713947 0.160009 0.538987 -0.132054 0.831874 0.572262 0.198277 
0.000002 -0.970895 0.377563 0.844478 0.000000 0.535569 0.401319 0.003126 
0.766195 -0.460446 -0.720324 -0.125858 0.239753 0.962615 0.608548 0.412199 
0.647246 -0.563091 -0.832548 -0.732749 0.413038 0.540788 0.614375 0.425615 
0.000002 -0.487783 -0.891588 -0.968657 0.000000 0.248299 0.638862 0.477452 
0.360598 0.609637 0.585060 0.776147 0.389355 -0.495926 0.670203 0.852898 
0.413596 0.735076 0.656074 0.773553 0.548448 -0.317484 0.703582 0.771000 
0.362355 0.771764 0.644666 0.826258 -0.557726 0.078616 0.736764 0.775039 
0.243717 0.669680 0.541145 0.743370 -0.668447 0.023011 0.757961 0.887226 
0.431265 0.795308 0.525624 -0.311960 0.931394 0.187384 0.637924 0.719570 
0.435116 0.694695 0.424261 -0.222663 0.939482 0.260292 0.562176 0.778762 
0.336913 0.748491 0.407228 -0.596912 0.405530 0.692221 0.530795 0.709425 
0.371783 0.826944 0.530069 -0.749809 0.250038 0.612568 0.626792 0.674251 
0.254958 0.779060 0.487727 0.118107 -0.634327 0.763939 0.831159 0.845392 
0.348900 0.833693 0.590810 0.209326 -0.791742 0.573809 0.783940 0.758171 
0.371783 0.826944 0.530069 -0.371654 -0.429151 0.823176 0.827588 0.757807 
0.336913 0.748491 0.407228 -0.495865 -0.169347 0.851711 0.904866 0.819124 
0.430020 0.851025 0.653115 0.803797 0.592792 -0.049623 0.729152 0.714940 
0.406613 0.869033 0.646343 0.798029 -0.563097 0.214515 0.747832 0.713171 
0.440880 0.882931 0.582826 -0.617542 0.693106 0.371746 0.696474 0.679231 
0.401069 0.900263 0.586046 -0.808496 0.178686 0.560656 0.689678 0.650981 
0.389081 0.889312 0.617413 0.289560 -0.835749 0.466475 0.772662 0.709968 
0.401069 0.900263 0.586046 -0.180120 -0.786554 0.590625 0.794379 0.701843 
0.000002 0.223560 -0.753127 -0.788354 0.000000 -0.615192 0.632357 0.581348 
0.219661 0.223559 -0.753126 -0.653462 0.334574 -0.678945 0.566965 0.593299 
0.200765 0.341203 -0.742961 -0.598071 0.173437 0.782434 0.570151 0.628372 
0.219661 0.315638 -0.770926 -0.818995 0.446303 0.360576 0.568515 0.608099 
0.000002 0.315639 -0.770926 -0.921262 0.000000 0.388928 0.631809 0.610849 
0.000002 0.341204 -0.742961 -0.674703 0.000000 0.738060 0.631624 0.620745 
0.188506 0.494421 -0.699969 -0.902982 0.210486 0.374554 0.053526 0.696791 
0.200765 0.341203 -0.742961 -0.859371 0.506974 0.066622 0.007694 0.707683 
0.000002 0.341204 -0.742961 -0.962798 0.000000 0.270150 0.002084 0.643541 
0.000002 0.494422 -0.699969 -0.913663 0.000000 0.406446 0.051054 0.643541 
0.513734 0.195818 0.144420 0.016846 0.853816 -0.520249 0.295930 0.572158 
0.506865 0.069246 0.144421 0.043580 0.981170 0.188116 0.296393 0.528735 
0.525158 0.073280 -0.096081 -0.130741 0.990478 -0.042665 0.378690 0.534636 
0.513734 0.196406 -0.106898 -0.002228 0.763237 -0.646077 0.376813 0.573304 
0.457404 0.017519 0.812773 0.391644 0.574572 0.718619 0.121121 0.474259 
0.434252 -0.159893 0.783129 0.707450 0.687399 -0.164129 0.123329 0.422140 
0.527358 -0.112338 0.679697 0.278970 0.960173 -0.013550 0.156243 0.434868 
0.506865 0.042134 0.358479 0.189276 0.855342 0.482223 0.226870 0.522592 
0.360698 0.027335 0.891588 0.703879 0.303018 0.642415 0.108923 0.475045 
0.341146 -0.207449 0.852688 0.966521 0.200415 -0.160009 0.105466 0.412749 
0.000002 -0.017967 0.832845 0.888516 0.000000 0.458815 0.002086 0.466065 
0.000002 -0.160741 0.810367 0.997284 0.000000 -0.073458 0.002085 0.428318 
0.569051 -0.027152 0.116670 -0.070528 0.985870 0.151769 0.312946 0.492011 
0.523511 -0.090628 0.354881 0.073031 0.997223 -0.014283 0.234597 0.463535 
0.334979 0.039773 0.631199 0.621265 0.328318 0.711447 0.118285 0.509611 
0.390623 0.204236 0.609392 0.497452 0.709433 -0.499191 0.137311 0.567740 
0.316954 0.142749 0.637581 0.412244 0.557970 -0.720206 0.110434 0.544524 
0.513734 0.192743 0.352522 0.134281 0.857601 -0.496414 0.224806 0.569568 
0.554234 0.219976 0.352521 0.227546 0.783837 -0.577715 0.226959 0.583711 
0.385115 0.214956 0.663641 0.594440 0.698111 -0.399030 0.120660 0.575905 
0.374399 0.337125 0.602424 0.085513 0.536027 0.839839 0.129591 0.618831 
0.378920 0.323846 0.663326 0.549913 0.657002 0.515641 0.117047 0.605270 
0.554234 0.315637 0.352521 0.201727 0.792413 0.575610 0.225047 0.614367 
0.513496 0.331288 0.352521 0.087863 0.357219 0.929838 0.220974 0.626882 
0.228168 0.111759 0.648193 0.934751 0.311869 -0.170141 0.078740 0.533033 
0.230744 0.039915 0.676334 0.436018 0.133091 0.890011 0.078372 0.494576 
0.000002 0.069238 0.730924 0.934446 0.000000 0.356029 0.002085 0.497935 
0.000002 0.115825 0.739379 0.924223 0.000000 0.381787 0.002084 0.527933 
0.000002 0.559906 0.614055 0.919126 0.000000 0.393933 0.446882 0.643540 
0.134007 0.388752 0.663374 0.963103 -0.090182 0.253548 0.498543 0.688234 
0.222792 0.419743 0.648636 0.948790 0.080386 0.305490 0.485164 0.716015 
0.243717 0.669680 0.541145 0.871395 -0.089877 0.482253 0.407844 0.701733 
0.360598 0.609637 0.585060 0.825709 0.545213 0.144597 0.417842 0.732475 
0.310913 0.391913 0.623628 0.758690 0.628559 0.171056 0.480244 0.748531 
0.374399 0.337125 0.602424 0.571429 0.765984 0.294473 0.483517 0.776288 
0.513496 0.331288 0.352521 0.208106 0.971740 0.111209 0.415099 0.844833 
0.478270 0.493176 0.382763 0.368938 0.913419 0.171850 0.396125 0.795363 
0.513734 0.197206 -0.367357 -0.339976 0.804712 -0.486648 0.459089 0.574709 
0.554234 0.213333 -0.367358 -0.283853 0.832575 -0.475600 0.453645 0.594869 
0.554234 0.212070 -0.106899 0.004028 0.840938 -0.541063 0.376520 0.585519 
0.323092 0.142749 0.670434 0.652577 0.486557 -0.580798 0.103676 0.554736 
0.144508 0.139591 0.700078 0.808954 -0.287393 -0.512772 0.052358 0.550722 
0.087997 0.215609 0.709459 0.903165 -0.240333 -0.355602 0.033201 0.569565 
0.081859 0.200708 0.672480 0.763054 -0.384442 -0.519517 0.027477 0.558212 
0.138370 0.139590 0.663099 0.706442 -0.216803 -0.673696 0.047441 0.541298 
0.234306 0.111760 0.685172 0.609394 0.115757 -0.784326 0.078300 0.545518 
0.554234 0.219976 0.144420 0.002716 0.874020 -0.485824 0.295486 0.586324 
0.000002 0.224646 0.678384 0.855770 0.000000 -0.517289 0.002084 0.570312 
0.000002 0.210324 0.656353 0.992035 0.000000 -0.125858 0.002084 0.561810 
0.554234 0.315638 -0.326164 -0.208869 0.728050 0.652882 0.446992 0.606542 
0.513496 0.341203 -0.326164 -0.235084 0.519211 0.821650 0.453691 0.628248 
0.513496 0.330020 -0.158389 0.013153 0.390576 0.920469 0.394483 0.631798 
0.554234 0.315637 -0.158389 0.000000 0.889218 0.457442 0.393888 0.617950 
0.318539 0.391913 0.669567 0.676321 0.439039 0.591418 0.099608 0.621989 
0.310913 0.391913 0.623628 -0.077700 0.468062 0.880245 0.105933 0.633851 
0.080147 0.321237 0.672315 0.258675 -0.453505 0.852870 0.026869 0.609626 
0.086096 0.314698 0.708152 0.844874 -0.347270 0.406873 0.033012 0.600026 
0.139956 0.388752 0.699212 0.692770 -0.344249 0.633656 0.049782 0.619769 
0.134007 0.388752 0.663374 0.093966 -0.566088 0.818934 0.043811 0.629621 
0.222792 0.419743 0.648636 0.002838 -0.017212 0.999847 0.074257 0.639050 
0.228741 0.419743 0.684474 0.832484 0.129002 0.538743 0.074490 0.627651 
0.000002 0.323843 0.656223 0.392499 0.000000 0.919736 0.002084 0.610595 
0.000002 0.314384 0.678385 0.626942 0.000000 0.779046 0.002084 0.601994 
0.513496 0.331288 0.144421 -0.001282 0.358623 0.933470 0.293715 0.628775 
0.554234 0.315638 0.144421 -0.000763 0.821619 0.570025 0.294233 0.615467 
0.546036 0.702187 -0.193140 0.603595 -0.150609 0.782891 0.907458 0.042193 
0.648944 0.795793 -0.220867 0.805872 -0.259102 0.532365 0.933825 0.102925 
0.620231 0.795793 -0.323140 0.057253 -0.635517 0.769921 0.975906 0.092237 
0.546037 0.675547 -0.319679 -0.172796 -0.544389 0.820826 0.969465 0.029682 
0.495740 0.666917 -0.326164 -0.123875 -0.328837 0.936216 0.969230 0.007026 
0.482937 0.666917 -0.158388 0.648457 0.407117 0.643208 0.889953 0.007129 
0.566443 0.350699 -0.174581 0.765923 0.389355 -0.511582 0.725915 0.033912 
0.566444 0.359052 -0.303470 -0.065310 0.005860 -0.997833 0.663764 0.057478 
0.673850 0.258174 -0.263715 0.252968 -0.108676 -0.961333 0.698248 0.113014 
0.690670 0.288300 -0.203810 0.687277 0.512497 -0.514725 0.723876 0.103332 
0.513496 0.330020 -0.158389 0.314585 0.425825 -0.848323 0.720293 0.004115 
0.513496 0.341203 -0.326164 -0.062471 0.342753 -0.937315 0.643352 0.035721 
0.837617 0.599570 -0.249690 0.730247 0.657399 -0.185705 0.840232 0.167386 
0.837993 0.599569 -0.302336 -0.573809 0.817988 -0.039796 0.834793 0.185639 
0.856741 0.874205 -0.251891 -0.328623 0.595691 0.732902 0.934216 0.188955 
0.856367 0.874204 -0.220273 0.700705 0.477645 0.529923 0.924105 0.175302 
0.784606 0.358030 -0.267871 0.467238 0.824793 -0.318400 0.751417 0.143264 
0.776059 0.358031 -0.298313 -0.446791 0.690878 -0.568346 0.743696 0.154734 
0.337752 0.787490 -0.367357 -0.262551 0.432203 0.862667 0.172088 0.728565 
0.357461 0.801434 -0.106898 0.005799 0.474258 0.880337 0.240643 0.739121 
0.482937 0.666917 -0.158388 -0.008972 0.774407 0.632588 0.224374 0.794227 
0.495740 0.666917 -0.326164 -0.414258 0.624561 0.662008 0.168105 0.787926 
0.462305 -0.039424 -0.365212 -0.290262 0.908719 -0.299905 0.462378 0.515763 
0.415970 -0.247104 -0.106899 -0.374981 0.849330 -0.371441 0.401118 0.427521 
0.000002 0.883412 -0.106898 -0.036042 0.000000 0.999329 0.239922 0.643540 
0.000002 0.843123 -0.367357 -0.486496 0.000000 0.873653 0.172528 0.643540 
0.620231 0.795793 -0.323140 -0.962493 0.062197 0.264046 0.883694 0.281677 
0.648486 0.509323 -0.419827 -0.991699 0.003632 -0.128422 0.773524 0.242289 
0.673850 0.258174 -0.263715 -0.849513 0.005615 -0.527482 0.680163 0.167353 
0.546037 0.675547 -0.319679 -0.909696 -0.227393 0.347392 0.829005 0.303815 
0.559283 0.506603 -0.393514 -0.967040 0.253151 -0.026856 0.756539 0.275264 
0.566444 0.359052 -0.303470 -0.850765 0.018525 -0.525163 0.693118 0.233128 
0.670874 0.534070 -0.290153 0.942289 0.330485 0.053102 0.820578 0.098969 
0.556241 0.512621 -0.184680 0.665700 0.734458 0.131840 0.813748 0.036011 
0.513496 0.341203 -0.326164 -0.739433 0.508011 -0.441725 0.679815 0.250822 
0.517834 0.518177 -0.431893 -0.728843 0.683859 0.032258 0.751168 0.299251 
0.495740 0.666917 -0.326164 -0.789850 0.379070 0.482070 0.820458 0.319863 
0.526557 0.505829 -0.119191 0.633473 0.770775 0.067568 0.810508 0.003126 
0.476455 -0.325211 0.018761 -0.552507 0.656209 -0.513871 0.363748 0.407702 
0.474389 -0.224308 -0.043932 -0.578326 0.780145 -0.238472 0.368645 0.436207 
0.527495 -0.274242 0.023622 -0.325114 0.906186 -0.270302 0.338467 0.422632 
0.497262 -0.403317 0.123928 -0.319315 0.738945 -0.593249 0.326297 0.384374 
0.434608 0.028033 0.745337 -0.219367 0.959197 0.178289 0.743687 0.519974 
0.377796 0.038693 0.624822 -0.735557 0.354625 0.577197 0.658057 0.461934 
0.383209 0.113411 0.686062 -0.815149 0.319315 0.483230 0.727533 0.429658 
0.425004 0.105750 0.751483 -0.072634 0.980468 0.182592 0.773153 0.469242 
0.361312 0.028272 0.828621 0.853267 -0.488907 0.181219 0.835771 0.550682 
0.371362 0.105922 0.811329 0.960509 -0.154637 0.231269 0.837928 0.490133 
0.312092 0.108767 0.743348 0.220130 -0.912809 0.343944 0.905876 0.479999 
0.274413 0.038861 0.690686 -0.189367 -0.829798 0.524918 0.961546 0.529831 
0.361312 0.028272 0.828621 0.132267 0.089297 0.987152 0.118047 0.483557 
0.274413 0.038861 0.690686 0.081484 0.044191 0.995666 0.100361 0.496758 
0.000002 0.323843 0.656223 0.974303 0.000000 0.225166 0.520631 0.643541 
0.080147 0.321237 0.672315 0.945738 -0.181097 0.269723 0.521815 0.670867 
0.000002 0.615888 -0.623209 -0.791833 0.000000 0.610706 0.090545 0.643541 
0.233034 0.615886 -0.623209 -0.721915 0.336344 0.604694 0.093570 0.704112 
0.467460 0.690990 0.144423 0.075320 0.849849 0.521561 0.313235 0.770307 
0.506865 0.505829 0.144422 0.080630 0.987365 0.136204 0.330385 0.821648 
0.526557 0.505829 -0.119191 0.044313 0.992828 0.110813 0.248969 0.846230 
0.513496 0.331288 0.144421 0.024964 0.999664 0.000549 0.350851 0.873944 
0.513496 0.330020 -0.158389 0.000305 0.997223 -0.074129 0.255090 0.906179 
0.517834 0.518177 -0.431893 -0.715293 0.674276 0.183477 0.112273 0.801596 
0.513496 0.341203 -0.326164 -0.561357 0.748161 -0.353710 0.071862 0.846775 
0.435116 0.694695 0.424261 0.228889 0.871639 0.433332 0.376652 0.745387 
0.414945 0.028154 0.806972 0.684164 0.723167 0.094546 0.791230 0.539240 
0.415169 0.105837 0.801398 0.679830 0.701132 0.214881 0.806364 0.483821 
0.314488 0.038814 0.656012 -0.716575 -0.344798 0.606281 0.646324 0.409834 
0.337716 0.113497 0.707581 -0.803613 -0.379254 0.458632 0.716258 0.391216 
0.337716 0.113497 0.707581 -0.523301 -0.677633 0.516648 0.932666 0.457912 
0.314488 0.038814 0.656012 -0.612354 -0.529130 0.587390 0.991495 0.501314 
0.314488 0.038814 0.656012 0.102268 0.077395 0.991729 0.118874 0.495777 
0.377796 0.038693 0.624822 0.048585 0.047700 0.997650 0.124889 0.494928 
0.434608 0.028033 0.745337 0.066897 0.178106 0.981719 0.129260 0.486291 
0.414945 0.028154 0.806972 0.245857 0.203742 0.947630 0.115801 0.480190 
0.357460 0.787489 0.144421 0.103244 0.444594 0.889737 0.306583 0.732752 
0.387540 -0.481652 0.762993 0.636982 0.661855 -0.395184 0.127927 0.313038 
0.459256 -0.395147 0.712187 0.453627 0.847743 -0.274758 0.149436 0.342011 
0.268216 -0.568157 0.786009 0.764489 0.219947 -0.605914 0.086571 0.284115 
0.254958 0.779060 0.487727 0.382031 0.104648 0.918180 0.380553 0.701100 
0.336913 0.748491 0.407228 0.123997 0.539720 0.832636 0.367136 0.722542 
0.504378 -0.452023 0.473670 0.061434 0.963591 -0.260109 0.253379 0.363470 
0.432163 -0.571834 0.534823 0.064364 0.763298 -0.642811 0.236463 0.321686 
0.297735 -0.691644 0.595973 0.097537 0.369640 -0.924009 0.167860 0.265330 
0.000002 0.853678 0.144421 0.126102 0.000000 0.992004 0.303945 0.643540 
0.000002 -0.549885 0.813801 0.925657 0.000000 -0.378307 0.002084 0.279364 
0.000002 0.784748 0.413004 0.665609 0.000000 0.746269 0.369802 0.643540 
0.000002 -0.691642 0.595973 0.284219 0.000000 -0.958739 0.101820 0.176206 
-0.539791 -0.290015 -0.599927 0.102817 -0.583056 0.805872 0.567281 0.432656 
-0.411766 -0.340226 -0.442112 0.371441 -0.677938 0.634327 0.516425 0.427471 
-0.369290 -0.138639 -0.742427 -0.418592 -0.620991 0.662648 0.558370 0.484781 
-0.452562 -0.212158 -0.771907 -0.726402 -0.435469 0.531663 0.582994 0.454958 
-0.374605 -0.235503 -0.367356 0.011628 -0.997742 0.065950 0.485382 0.451343 
-0.261108 0.026540 -0.715545 -0.765709 -0.631581 0.121372 0.557206 0.530838 
-0.390622 -0.597892 0.007048 0.719443 -0.666494 0.195318 0.443191 0.269866 
-0.496813 -0.645724 -0.130749 0.637715 -0.288003 0.714377 0.499804 0.288412 
-0.326212 -0.473368 0.018761 -0.073489 -0.868435 -0.490310 0.390935 0.302597 
-0.413176 -0.507199 -0.153833 0.397198 -0.724448 0.563311 0.469012 0.333575 
-0.558114 -0.522062 -0.286844 0.480575 -0.304453 0.822382 0.533044 0.347004 
-0.310019 -0.442019 -0.106899 -0.084658 -0.994812 -0.056001 0.430270 0.352064 
-0.200871 0.206112 -0.725323 -0.845790 -0.267739 -0.461379 0.569069 0.574257 
-0.823547 -0.460580 -0.231836 0.324046 0.301218 0.896786 0.602697 0.329936 
-0.661131 -0.713946 0.160009 0.538987 0.132054 0.831874 0.572262 0.198277 
-0.766191 -0.460446 -0.720323 -0.125858 -0.239753 0.962615 0.608548 0.412199 
-0.647242 -0.563091 -0.832548 -0.732749 -0.413038 0.540788 0.614375 0.425615 
-0.360595 0.609637 0.585060 0.776147 -0.389355 -0.495926 0.670203 0.852898 
-0.243714 0.669680 0.541145 0.743370 0.668447 0.023011 0.757961 0.887226 
-0.362352 0.771764 0.644666 0.826258 0.557726 0.078616 0.736764 0.775039 
-0.413593 0.735076 0.656075 0.773553 -0.548448 -0.317484 0.703582 0.771000 
-0.431262 0.795308 0.525624 -0.311960 -0.931394 0.187384 0.637924 0.719570 
-0.435113 0.694694 0.424261 -0.222663 -0.939482 0.260292 0.562176 0.778762 
-0.336909 0.748491 0.407228 -0.596912 -0.405530 0.692251 0.530795 0.709425 
-0.371779 0.826944 0.530069 -0.749809 -0.250008 0.612568 0.626792 0.674251 
-0.254954 0.779060 0.487727 0.118107 0.634327 0.763939 0.831159 0.845392 
-0.336909 0.748491 0.407228 -0.495865 0.169347 0.851711 0.904866 0.819124 
-0.371779 0.826944 0.530069 -0.371654 0.429182 0.823176 0.827588 0.757807 
-0.348897 0.833693 0.590810 0.209357 0.791742 0.573809 0.783940 0.758171 
-0.430017 0.851025 0.653115 0.803797 -0.592792 -0.049623 0.729152 0.714940 
-0.406610 0.869033 0.646343 0.798029 0.563097 0.214515 0.747832 0.713171 
-0.440876 0.882931 0.582826 -0.617542 -0.693106 0.371746 0.696474 0.679231 
-0.401065 0.900263 0.586046 -0.808496 -0.178686 0.560656 0.689678 0.650981 
-0.401065 0.900263 0.586046 -0.180090 0.786584 0.590625 0.794379 0.701843 
-0.389078 0.889312 0.617413 0.289590 0.835749 0.466475 0.772662 0.709968 
-0.219658 0.223559 -0.753125 -0.741874 -0.281564 -0.608509 0.566965 0.593299 
-0.200762 0.341203 -0.742961 -0.598071 -0.173437 0.782434 0.570151 0.628372 
-0.219658 0.315638 -0.770926 -0.734733 -0.508408 0.449049 0.568515 0.608099 
-0.188502 0.494421 -0.699969 -0.902982 -0.210486 0.374554 0.053526 0.696791 
-0.200762 0.341203 -0.742961 -0.859371 -0.506974 0.066622 0.007694 0.707683 
-0.513730 0.195817 0.144421 0.011414 -0.872219 -0.488937 0.295930 0.572158 
-0.513730 0.196406 -0.106898 0.006073 -0.785699 -0.618549 0.376813 0.573304 
-0.525155 0.073280 -0.096081 -0.130741 -0.990478 -0.042665 0.378690 0.534636 
-0.506862 0.069246 0.144421 0.043580 -0.981170 0.188116 0.296393 0.528735 
-0.457400 0.017519 0.812773 0.391644 -0.574572 0.718619 0.121121 0.474259 
-0.506862 0.042134 0.358479 0.189276 -0.855342 0.482223 0.226870 0.522592 
-0.527355 -0.112338 0.679697 0.279000 -0.960173 -0.013550 0.156243 0.434868 
-0.434249 -0.159893 0.783129 0.707450 -0.687399 -0.164129 0.123329 0.422140 
-0.360695 0.027335 0.891587 0.703848 -0.303018 0.642415 0.108923 0.475045 
-0.341143 -0.207449 0.852688 0.966521 -0.200415 -0.160009 0.105466 0.412749 
-0.569047 -0.027152 0.116671 -0.070528 -0.985870 0.151769 0.312946 0.492011 
-0.523508 -0.090628 0.354881 0.073031 -0.997223 -0.014283 0.234597 0.463535 
-0.334976 0.039773 0.631199 0.621265 -0.328318 0.711447 0.118285 0.509611 
-0.316951 0.142749 0.637581 0.412244 -0.557970 -0.720206 0.110434 0.544524 
-0.390620 0.204235 0.609392 0.497452 -0.709433 -0.499191 0.137311 0.567740 
-0.385112 0.214956 0.663642 0.464461 -0.762261 -0.450758 0.120660 0.575905 
-0.554231 0.219976 0.352522 0.161504 -0.814203 -0.557634 0.226959 0.583711 
-0.513730 0.192743 0.352522 0.159825 -0.904202 -0.395978 0.224806 0.569568 
-0.374396 0.337125 0.602424 0.085513 -0.536027 0.839839 0.129591 0.618831 
-0.513493 0.331288 0.352521 0.058535 -0.358013 0.931852 0.220974 0.626882 
-0.554231 0.315637 0.352521 0.267403 -0.774407 0.573351 0.225047 0.614367 
-0.378917 0.323846 0.663326 0.708670 -0.563616 0.424329 0.117047 0.605270 
-0.228164 0.111759 0.648193 0.902982 -0.239448 -0.356700 0.078740 0.533033 
-0.230740 0.039915 0.676334 0.436018 -0.133091 0.890011 0.078372 0.494576 
-0.243714 0.669680 0.541145 0.871395 0.089877 0.482253 0.407844 0.701733 
-0.222789 0.419743 0.648636 0.948790 -0.080386 0.305490 0.485164 0.716015 
-0.134004 0.388752 0.663374 0.963103 0.090182 0.253548 0.498543 0.688234 
-0.360595 0.609637 0.585060 0.825709 -0.545213 0.144597 0.417842 0.732475 
-0.310910 0.391913 0.623628 0.758690 -0.628559 0.171026 0.480244 0.748531 
-0.374396 0.337125 0.602424 0.571429 -0.765984 0.294473 0.483517 0.776288 
-0.478267 0.493176 0.382763 0.368938 -0.913419 0.171850 0.396125 0.795363 
-0.513493 0.331288 0.352521 0.208106 -0.971740 0.111209 0.415099 0.844833 
-0.554231 0.212069 -0.106898 0.004425 -0.825770 -0.563952 0.376520 0.585519 
-0.554231 0.213333 -0.367357 -0.324290 -0.878262 -0.351360 0.453645 0.594869 
-0.513730 0.197205 -0.367357 -0.299844 -0.763634 -0.571764 0.459089 0.574709 
-0.323088 0.142749 0.670434 0.858882 -0.365276 -0.358928 0.103676 0.554736 
-0.144505 0.139591 0.700078 0.578082 0.383404 -0.720267 0.052358 0.550722 
-0.138366 0.139590 0.663099 0.906461 0.138249 -0.398968 0.047441 0.541298 
-0.081855 0.200708 0.672480 0.763054 0.384442 -0.519517 0.027477 0.558212 
-0.087994 0.215609 0.709459 0.903195 0.240333 -0.355602 0.033201 0.569565 
-0.234303 0.111760 0.685172 0.699911 -0.204260 -0.684347 0.078300 0.545518 
-0.554231 0.219976 0.144421 0.006348 -0.787408 -0.616382 0.295486 0.586324 
-0.554231 0.315638 -0.326164 -0.208869 -0.728050 0.652882 0.446992 0.606542 
-0.554231 0.315637 -0.158389 -0.000793 -0.818995 0.573748 0.393888 0.617950 
-0.513493 0.330020 -0.158389 0.017548 -0.401166 0.915830 0.394483 0.631798 
-0.513493 0.341203 -0.326164 -0.235084 -0.519211 0.821650 0.453691 0.628248 
-0.318536 0.391913 0.669567 0.420850 -0.502579 0.755150 0.099608 0.621989 
-0.310910 0.391913 0.623628 -0.077700 -0.468062 0.880245 0.105933 0.633851 
-0.080144 0.321237 0.672315 0.258675 0.453505 0.852870 0.026869 0.609626 
-0.134004 0.388752 0.663374 0.080752 0.486557 0.869900 0.043811 0.629621 
-0.139953 0.388752 0.699212 0.866573 0.241798 0.436506 0.049782 0.619769 
-0.086093 0.314698 0.708152 0.844874 0.347270 0.406873 0.033012 0.600026 
-0.222789 0.419743 0.648636 -0.014771 -0.089084 0.995911 0.074257 0.639050 
-0.228738 0.419743 0.684474 0.724998 -0.032594 0.687948 0.074490 0.627651 
-0.554231 0.315638 0.144421 0.000000 -0.875576 0.483047 0.294233 0.615467 
-0.513493 0.331288 0.144421 -0.001312 -0.350078 0.936705 0.293715 0.628775 
-0.546032 0.702186 -0.193135 0.603595 0.150639 0.782891 0.907458 0.042193 
-0.546041 0.675548 -0.319674 -0.172826 0.544359 0.820826 0.969465 0.029682 
-0.620235 0.795793 -0.323130 0.057222 0.635517 0.769951 0.975906 0.092237 
-0.648942 0.795792 -0.220855 0.805841 0.259163 0.532365 0.933825 0.102925 
-0.495737 0.666917 -0.326164 -0.123875 0.328837 0.936216 0.969230 0.007026 
-0.482933 0.666917 -0.158388 0.648457 -0.407117 0.643208 0.889953 0.007129 
-0.566435 0.350698 -0.174577 0.765923 -0.389325 -0.511612 0.725915 0.033912 
-0.690662 0.288298 -0.203799 0.687307 -0.512467 -0.514725 0.723876 0.103332 
-0.673846 0.258172 -0.263705 0.252937 0.108676 -0.961333 0.698248 0.113014 
-0.566443 0.359052 -0.303467 -0.065340 -0.005860 -0.997833 0.663764 0.057478 
-0.513493 0.330020 -0.158389 0.314585 -0.425825 -0.848323 0.720293 0.004115 
-0.513493 0.341203 -0.326164 -0.062471 -0.342753 -0.937315 0.643352 0.035721 
-0.837616 0.599567 -0.249667 0.730277 -0.657369 -0.185736 0.840232 0.167386 
-0.856365 0.874202 -0.220246 0.700705 -0.477615 0.529954 0.924105 0.175302 
-0.856741 0.874201 -0.251865 -0.328593 -0.595691 0.732871 0.934216 0.188955 
-0.837994 0.599567 -0.302313 -0.573779 -0.818018 -0.039796 0.834793 0.185639 
-0.784604 0.358029 -0.267854 0.467269 -0.824763 -0.318400 0.751417 0.143264 
-0.776058 0.358029 -0.298296 -0.446760 -0.690909 -0.568346 0.743696 0.154734 
-0.337749 0.787490 -0.367357 -0.262551 -0.432203 0.862667 0.172088 0.728565 
-0.495737 0.666917 -0.326164 -0.414258 -0.624561 0.662008 0.168105 0.787926 
-0.482933 0.666917 -0.158388 -0.008972 -0.774407 0.632588 0.224374 0.794227 
-0.357457 0.801434 -0.106898 0.005799 -0.474258 0.880337 0.240643 0.739121 
-0.415967 -0.247105 -0.106899 -0.374981 -0.849330 -0.371441 0.401118 0.427521 
-0.462302 -0.039424 -0.365211 -0.290262 -0.908719 -0.299905 0.462378 0.515763 
-0.620235 0.795793 -0.323130 -0.962493 -0.062258 0.264046 0.883694 0.281677 
-0.648495 0.509324 -0.419817 -0.991699 -0.003693 -0.128422 0.773524 0.242289 
-0.673846 0.258172 -0.263705 -0.849513 -0.005676 -0.527482 0.680163 0.167353 
-0.546041 0.675548 -0.319674 -0.909726 0.227332 0.347392 0.829005 0.303815 
-0.559290 0.506604 -0.393510 -0.967040 -0.253182 -0.026856 0.756539 0.275264 
-0.566443 0.359052 -0.303467 -0.850765 -0.018555 -0.525163 0.693118 0.233128 
-0.670874 0.534068 -0.290143 0.942320 -0.330424 0.053102 0.820578 0.098969 
-0.556234 0.512620 -0.184676 0.665731 -0.734428 0.131840 0.813748 0.036011 
-0.517830 0.518177 -0.431893 -0.728904 -0.683828 0.032258 0.751168 0.299251 
-0.513493 0.341203 -0.326164 -0.739433 -0.508011 -0.441725 0.679815 0.250822 
-0.495737 0.666917 -0.326164 -0.789850 -0.379070 0.482070 0.820458 0.319863 
-0.526553 0.505829 -0.119191 0.633473 -0.770775 0.067568 0.810508 0.003126 
-0.476452 -0.325211 0.018761 -0.552507 -0.656209 -0.513871 0.363748 0.407702 
-0.497258 -0.403319 0.123928 -0.319315 -0.738945 -0.593249 0.326297 0.384374 
-0.527492 -0.274242 0.023623 -0.325114 -0.906186 -0.270302 0.338467 0.422632 
-0.474385 -0.224308 -0.043933 -0.578326 -0.780145 -0.238472 0.368645 0.436207 
-0.434604 0.028033 0.745336 -0.219398 -0.959197 0.178289 0.743687 0.519974 
-0.425001 0.105750 0.751483 -0.072634 -0.980468 0.182592 0.773153 0.469242 
-0.383205 0.113410 0.686062 -0.815149 -0.319315 0.483230 0.727533 0.429658 
-0.377793 0.038693 0.624822 -0.735557 -0.354625 0.577197 0.658057 0.461934 
-0.361308 0.028272 0.828621 0.853267 0.488907 0.181219 0.835771 0.550682 
-0.274409 0.038861 0.690686 -0.189398 0.829798 0.524918 0.961546 0.529831 
-0.312089 0.108767 0.743348 0.220130 0.912809 0.343944 0.905876 0.479999 
-0.371359 0.105922 0.811329 0.960509 0.154637 0.231269 0.837928 0.490133 
-0.361308 0.028272 0.828621 0.132267 -0.089297 0.987152 0.118047 0.483557 
-0.274409 0.038861 0.690686 0.081484 -0.044191 0.995666 0.100361 0.496758 
-0.080144 0.321237 0.672315 0.945738 0.181097 0.269723 0.521815 0.670867 
-0.233030 0.615886 -0.623209 -0.721915 -0.336344 0.604663 0.093570 0.704112 
-0.467457 0.690988 0.144423 0.075320 -0.849849 0.521561 0.313235 0.770307 
-0.526553 0.505829 -0.119191 0.044313 -0.992828 0.110813 0.248969 0.846230 
-0.506862 0.505829 0.144422 0.080630 -0.987365 0.136204 0.330385 0.821648 
-0.513493 0.331288 0.144421 0.024964 -0.999664 0.000549 0.350851 0.873944 
-0.513493 0.330020 -0.158389 0.000305 -0.997223 -0.074129 0.255090 0.906179 
-0.517830 0.518177 -0.431893 -0.715293 -0.674276 0.183477 0.112273 0.801596 
-0.513493 0.341203 -0.326164 -0.561357 -0.748161 -0.353679 0.071862 0.846775 
-0.435113 0.694694 0.424261 0.228889 -0.871639 0.433332 0.376652 0.745387 
-0.414942 0.028154 0.806972 0.684164 -0.723167 0.094546 0.791230 0.539240 
-0.415165 0.105837 0.801398 0.679830 -0.701132 0.214881 0.806364 0.483821 
-0.314485 0.038814 0.656012 -0.716575 0.344798 0.606281 0.646324 0.409834 
-0.337713 0.113497 0.707581 -0.803613 0.379254 0.458632 0.716258 0.391216 
-0.314485 0.038814 0.656012 -0.612354 0.529099 0.587390 0.991495 0.501314 
-0.337713 0.113497 0.707581 -0.523301 0.677633 0.516648 0.932666 0.457912 
-0.314485 0.038814 0.656012 0.102268 -0.077395 0.991729 0.118874 0.495777 
-0.377793 0.038693 0.624822 0.048585 -0.047700 0.997650 0.124889 0.494928 
-0.414942 0.028154 0.806972 0.245857 -0.203742 0.947630 0.115801 0.480190 
-0.434604 0.028033 0.745336 0.066897 -0.178106 0.981719 0.129260 0.486291 
-0.357456 0.787489 0.144421 0.103244 -0.444594 0.889737 0.306583 0.732752 
-0.459253 -0.395148 0.712187 0.453627 -0.847743 -0.274758 0.149436 0.342011 
-0.387537 -0.481653 0.762993 0.636952 -0.661855 -0.395184 0.127927 0.313038 
-0.268213 -0.568157 0.786009 0.764489 -0.219947 -0.605914 0.086571 0.284115 
-0.336909 0.748491 0.407228 0.123997 -0.539720 0.832636 0.367136 0.722542 
-0.254954 0.779060 0.487727 0.382031 -0.104648 0.918180 0.380553 0.701100 
-0.504375 -0.452024 0.473670 0.061434 -0.963591 -0.260140 0.253379 0.363470 
-0.432159 -0.571834 0.534823 0.064364 -0.763298 -0.642811 0.236463 0.321686 
-0.297732 -0.691644 0.595973 0.097537 -0.369640 -0.924009 0.167860 0.265330 
0.444689 0.970894 0.646087 0.467818 -0.337565 0.816797 0.759110 0.643540 
0.366386 0.279236 0.751710 -0.079928 0.015290 0.996673 0.846813 0.352523 
-0.444685 0.970894 0.646088 0.467818 0.337596 0.816767 0.759110 0.643540 
-0.366382 0.279236 0.751710 -0.079928 -0.015259 0.996673 0.846813 0.352523 
3 0 1 2 
3 0 2 3 
3 4 3 2 
3 4 2 5 
3 6 7 8 
3 6 8 9 
3 6 10 11 
3 6 11 7 
3 12 13 2 
3 12 2 1 
3 13 14 5 
3 13 5 2 
3 15 6 9 
3 15 9 16 
3 15 17 10 
3 15 10 6 
3 16 0 3 
3 16 3 15 
3 4 17 15 
3 4 15 3 
3 14 18 19 
3 14 19 5 
3 20 16 9 
3 20 9 21 
3 21 9 8 
3 21 8 22 
3 23 0 16 
3 23 16 20 
3 0 23 24 
3 0 24 1 
3 25 12 1 
3 25 1 24 
3 26 27 28 
3 26 28 29 
3 30 27 26 
3 30 26 31 
3 32 33 30 
3 32 30 31 
3 34 35 36 
3 34 36 37 
3 34 29 28 
3 34 28 35 
3 38 39 28 
3 38 28 27 
3 30 40 38 
3 30 38 27 
3 33 41 40 
3 33 40 30 
3 35 42 43 
3 35 43 36 
3 35 28 39 
3 35 39 42 
3 19 18 44 
3 19 44 45 
3 46 47 48 
3 46 48 49 
3 50 51 52 
3 50 52 53 
3 44 48 47 
3 44 47 45 
3 54 55 56 
3 54 56 57 
3 58 59 60 
3 58 60 61 
3 62 63 59 
3 62 59 58 
3 64 65 63 
3 64 63 62 
3 66 55 61 
3 66 61 67 
3 68 61 69 
3 68 69 70 
3 69 71 72 
3 69 72 73 
3 74 75 76 
3 74 76 77 
3 78 79 68 
3 78 68 70 
3 80 79 78 
3 80 78 81 
3 82 83 84 
3 82 84 85 
3 86 85 84 
3 86 84 87 
3 88 89 90 
3 88 90 87 
3 73 72 76 
3 73 76 75 
3 57 91 92 
3 57 92 93 
3 73 94 70 
3 73 70 69 
3 95 96 97 
3 95 97 98 
3 99 95 98 
3 99 98 78 
3 70 94 99 
3 70 99 78 
3 91 19 45 
3 91 45 92 
3 71 54 100 
3 71 100 72 
3 101 102 97 
3 101 97 96 
3 54 57 93 
3 54 93 100 
3 103 104 105 
3 103 105 106 
3 107 75 74 
3 107 74 108 
3 109 110 111 
3 109 111 112 
3 113 114 107 
3 113 107 108 
3 111 114 113 
3 111 113 112 
3 109 115 116 
3 109 116 110 
3 117 77 76 
3 117 76 118 
3 47 46 104 
3 47 104 103 
3 105 117 118 
3 105 118 106 
3 119 120 121 
3 119 121 122 
3 123 124 119 
3 123 119 122 
3 125 126 127 
3 125 127 128 
3 129 130 126 
3 129 126 125 
3 131 132 133 
3 131 133 134 
3 135 136 132 
3 135 132 131 
3 137 138 139 
3 137 139 140 
3 4 141 142 
3 4 142 17 
3 143 138 137 
3 143 137 144 
3 92 103 106 
3 92 106 93 
3 120 134 133 
3 120 133 121 
3 128 127 136 
3 128 136 135 
3 56 141 91 
3 56 91 57 
3 145 133 132 
3 145 132 146 
3 146 132 136 
3 146 136 147 
3 148 145 146 
3 148 146 149 
3 146 147 150 
3 146 150 149 
3 151 120 119 
3 151 119 152 
3 125 128 151 
3 125 151 152 
3 120 151 131 
3 120 131 134 
3 151 128 135 
3 151 135 131 
3 149 150 153 
3 149 153 154 
3 155 148 149 
3 155 149 154 
3 152 119 124 
3 152 124 156 
3 125 152 156 
3 125 156 129 
3 55 54 71 
3 55 71 61 
3 79 80 64 
3 79 64 62 
3 157 158 159 
3 157 159 160 
3 158 157 142 
3 158 142 56 
3 17 142 157 
3 17 157 10 
3 161 162 163 
3 161 163 164 
3 165 166 167 
3 165 167 168 
3 169 170 79 
3 169 79 62 
3 158 56 66 
3 158 66 159 
3 83 82 171 
3 83 171 172 
3 173 174 50 
3 173 50 53 
3 175 176 177 
3 175 177 139 
3 178 179 177 
3 178 177 176 
3 180 50 174 
3 180 174 140 
3 180 181 51 
3 180 51 50 
3 176 90 89 
3 176 89 178 
3 175 182 90 
3 175 90 176 
3 183 184 166 
3 183 166 165 
3 183 161 164 
3 183 164 184 
3 185 186 163 
3 185 163 162 
3 168 167 187 
3 168 187 188 
3 170 189 68 
3 170 68 79 
3 68 189 190 
3 68 190 61 
3 58 61 191 
3 58 191 192 
3 169 62 58 
3 169 58 192 
3 138 193 175 
3 138 175 139 
3 59 194 195 
3 59 195 60 
3 63 196 194 
3 63 194 59 
3 193 197 198 
3 193 198 175 
3 199 200 160 
3 199 160 159 
3 200 201 10 
3 200 10 160 
3 195 194 200 
3 195 200 199 
3 194 196 201 
3 194 201 200 
3 138 143 202 
3 138 202 193 
3 63 65 203 
3 63 203 196 
3 174 173 144 
3 174 144 137 
3 204 82 85 
3 204 85 197 
3 202 204 197 
3 202 197 193 
3 201 205 11 
3 201 11 10 
3 196 203 205 
3 196 205 201 
3 73 75 107 
3 73 107 94 
3 99 94 107 
3 99 107 114 
3 95 99 114 
3 95 114 111 
3 111 110 96 
3 111 96 95 
3 101 96 110 
3 101 110 116 
3 100 118 76 
3 100 76 72 
3 93 106 118 
3 93 118 100 
3 92 45 47 
3 92 47 103 
3 91 141 5 
3 91 5 19 
3 199 67 60 
3 199 60 195 
3 159 66 67 
3 159 67 199 
3 206 207 208 
3 206 208 209 
3 210 211 208 
3 210 208 207 
3 212 213 8 
3 212 8 7 
3 212 7 11 
3 212 11 214 
3 12 209 208 
3 12 208 13 
3 13 208 211 
3 13 211 14 
3 215 216 213 
3 215 213 212 
3 215 212 214 
3 215 214 217 
3 207 206 216 
3 207 216 215 
3 210 207 215 
3 210 215 217 
3 14 211 218 
3 14 218 18 
3 219 220 213 
3 219 213 216 
3 220 22 8 
3 220 8 213 
3 221 219 216 
3 221 216 206 
3 222 221 206 
3 222 206 209 
3 25 222 209 
3 25 209 12 
3 223 224 225 
3 223 225 226 
3 227 228 223 
3 227 223 226 
3 229 228 227 
3 229 227 230 
3 231 232 233 
3 231 233 234 
3 231 234 225 
3 231 225 224 
3 235 226 225 
3 235 225 236 
3 227 226 235 
3 227 235 237 
3 230 227 237 
3 230 237 238 
3 234 233 239 
3 234 239 240 
3 234 240 236 
3 234 236 225 
3 218 241 44 
3 218 44 18 
3 242 49 48 
3 242 48 243 
3 244 53 52 
3 244 52 245 
3 241 243 48 
3 241 48 44 
3 246 247 248 
3 246 248 249 
3 250 251 252 
3 250 252 253 
3 254 250 253 
3 254 253 255 
3 64 254 255 
3 64 255 65 
3 256 257 251 
3 256 251 249 
3 258 259 260 
3 258 260 251 
3 260 261 262 
3 260 262 263 
3 264 265 266 
3 264 266 267 
3 268 259 258 
3 268 258 269 
3 80 81 268 
3 80 268 269 
3 82 270 271 
3 82 271 272 
3 273 274 271 
3 273 271 270 
3 275 274 276 
3 275 276 277 
3 261 267 266 
3 261 266 262 
3 278 279 280 
3 278 280 247 
3 261 260 259 
3 261 259 281 
3 282 283 284 
3 282 284 285 
3 268 283 282 
3 268 282 286 
3 259 268 286 
3 259 286 281 
3 280 279 241 
3 280 241 218 
3 262 287 246 
3 262 246 263 
3 101 285 284 
3 101 284 102 
3 287 278 247 
3 287 247 246 
3 288 289 290 
3 288 290 291 
3 292 293 264 
3 292 264 267 
3 294 295 296 
3 294 296 297 
3 298 293 292 
3 298 292 299 
3 295 298 299 
3 295 299 296 
3 294 297 116 
3 294 116 115 
3 300 266 265 
3 300 265 301 
3 243 288 291 
3 243 291 242 
3 289 300 301 
3 289 301 290 
3 302 303 304 
3 302 304 305 
3 306 303 302 
3 306 302 307 
3 308 309 310 
3 308 310 311 
3 312 308 311 
3 312 311 313 
3 314 315 316 
3 314 316 317 
3 318 314 317 
3 318 317 319 
3 320 321 322 
3 320 322 323 
3 210 217 324 
3 210 324 325 
3 143 144 320 
3 143 320 323 
3 279 278 289 
3 279 289 288 
3 305 304 316 
3 305 316 315 
3 309 318 319 
3 309 319 310 
3 248 247 280 
3 248 280 325 
3 326 327 317 
3 326 317 316 
3 327 328 319 
3 327 319 317 
3 329 330 327 
3 329 327 326 
3 327 330 331 
3 327 331 328 
3 332 333 302 
3 332 302 305 
3 308 333 332 
3 308 332 309 
3 305 315 314 
3 305 314 332 
3 332 314 318 
3 332 318 309 
3 330 334 335 
3 330 335 331 
3 336 334 330 
3 336 330 329 
3 333 337 307 
3 333 307 302 
3 308 312 337 
3 308 337 333 
3 249 251 263 
3 249 263 246 
3 269 254 64 
3 269 64 80 
3 338 339 340 
3 338 340 341 
3 341 248 324 
3 341 324 338 
3 217 214 338 
3 217 338 324 
3 342 343 344 
3 342 344 345 
3 346 347 348 
3 346 348 349 
3 350 254 269 
3 350 269 351 
3 341 340 256 
3 341 256 248 
3 272 352 171 
3 272 171 82 
3 173 53 244 
3 173 244 353 
3 354 322 355 
3 354 355 356 
3 357 356 355 
3 357 355 358 
3 359 321 353 
3 359 353 244 
3 359 244 245 
3 359 245 360 
3 356 357 277 
3 356 277 276 
3 354 356 276 
3 354 276 361 
3 362 346 349 
3 362 349 363 
3 362 363 343 
3 362 343 342 
3 364 345 344 
3 364 344 365 
3 347 366 367 
3 347 367 348 
3 351 269 258 
3 351 258 368 
3 258 251 369 
3 258 369 368 
3 250 370 371 
3 250 371 251 
3 350 370 250 
3 350 250 254 
3 323 322 354 
3 323 354 372 
3 253 252 373 
3 253 373 374 
3 255 253 374 
3 255 374 375 
3 372 354 376 
3 372 376 377 
3 378 340 339 
3 378 339 379 
3 379 339 214 
3 379 214 380 
3 373 378 379 
3 373 379 374 
3 374 379 380 
3 374 380 375 
3 323 372 202 
3 323 202 143 
3 255 375 203 
3 255 203 65 
3 353 320 144 
3 353 144 173 
3 204 377 270 
3 204 270 82 
3 202 372 377 
3 202 377 204 
3 380 214 11 
3 380 11 205 
3 375 380 205 
3 375 205 203 
3 281 292 267 
3 281 267 261 
3 299 292 281 
3 299 281 286 
3 296 299 286 
3 296 286 282 
3 296 282 285 
3 296 285 297 
3 101 116 297 
3 101 297 285 
3 262 266 300 
3 262 300 287 
3 278 287 300 
3 278 300 289 
3 279 288 243 
3 279 243 241 
3 280 218 211 
3 280 211 325 
3 378 373 252 
3 378 252 257 
3 340 378 257 
3 340 257 256 
3 381 39 38 
3 381 38 40 
3 381 40 41 
3 381 43 42 
3 39 381 42 
3 55 66 56 
3 61 60 67 
3 71 69 61 
3 97 81 98 
3 78 98 81 
3 86 90 182 
3 87 90 86 
3 81 97 102 
3 141 56 142 
3 157 160 10 
3 382 164 163 
3 382 167 166 
3 61 190 191 
3 382 166 184 
3 382 184 164 
3 382 163 186 
3 382 187 167 
3 137 140 174 
3 5 141 4 
3 198 182 175 
3 236 383 235 
3 235 383 237 
3 237 383 238 
3 239 383 240 
3 383 236 240 
3 256 249 248 
3 252 251 257 
3 260 263 251 
3 81 284 283 
3 283 268 81 
3 276 273 361 
3 276 274 273 
3 284 81 102 
3 248 325 324 
3 339 338 214 
3 343 384 344 
3 348 384 349 
3 369 251 371 
3 349 384 363 
3 363 384 343 
3 344 384 365 
3 367 384 348 
3 321 320 353 
3 325 211 210 
3 361 376 354 
