ply
format ascii 1.0
Created by Blender3D 248 - www.blender.org, source file: 
element vertex 18
property float x
property float y
property float z
property float nx
property float ny
property float nz
property float s
property float t
element face 8
property list uchar uint vertex_indices
end_header
1.000000 -1.000000 1.000000 -0.000000 1.000000 -0.000000 1.000000 0.000000 
-1.000000 -1.000000 -1.000000 -0.000000 1.000000 -0.000000 0.000000 1.000000 
-1.000000 -1.000000 1.000000 -0.000000 1.000000 -0.000000 1.000000 1.000000 
1.000000 -1.000000 -1.000000 -0.000000 1.000000 -0.000000 0.000000 0.000000 
1.000000 1.000000 -1.000000 -1.000000 -0.000000 -0.000000 0.000000 0.000000 
1.000000 -1.000000 1.000000 -1.000000 -0.000000 -0.000000 1.000000 1.000000 
1.000000 1.000000 1.000000 -1.000000 -0.000000 -0.000000 1.000000 0.000000 
1.000000 -1.000000 -1.000000 -1.000000 -0.000000 -0.000000 0.000000 1.000000 
-1.000000 -1.000000 -1.000000 1.000000 0.000000 0.000001 1.000000 1.000000 
-1.000000 1.000000 -1.000000 1.000000 0.000000 0.000001 1.000000 0.000000 
-1.000000 -1.000000 1.000000 1.000000 0.000000 0.000001 0.000000 1.000000 
-1.000000 -1.000000 1.000000 1.000000 0.000000 0.000000 0.000000 1.000000 
-1.000000 1.000000 -1.000000 1.000000 0.000000 0.000000 1.000000 0.000000 
-1.000000 1.000000 1.000000 1.000000 0.000000 0.000000 0.000000 0.000000 
-1.000000 -1.000000 -1.000000 -0.000000 -0.000000 1.000000 0.000000 1.000000 
1.000000 1.000000 -1.000000 -0.000000 -0.000000 1.000000 1.000000 0.000000 
-1.00000 1.000000 -1.000000 -0.000000 -0.000000 1.000000 0.000000 0.000000 
1.000000 -1.000000 -1.000000 -0.000000 -0.000000 1.000000 1.000000 1.000000 
3 0 1 2 
3 1 0 3 
3 4 5 6 
3 4 7 5 
3 8 9 10 
3 11 12 13 
3 14 15 16 
3 14 17 15 
